<?xml version="1.0" standalone="no"?>
<!DOCTYPE svg PUBLIC "-//W3C//DTD SVG 20010904//EN"
 "http://www.w3.org/TR/2001/REC-SVG-20010904/DTD/svg10.dtd">
<svg version="1.0" xmlns="http://www.w3.org/2000/svg"
 width="108.000000pt" height="108.000000pt" viewBox="0 0 108.000000 108.000000"
 preserveAspectRatio="xMidYMid meet">
<metadata>
Created by potrace 1.14, written by Peter Selinger 2001-2017
</metadata>
<g transform="translate(0.000000,108.000000) scale(0.100000,-0.100000)"
fill="#000000" stroke="none">
<path d="M596 995 c-5 -14 -9 -15 -21 -5 -9 7 -18 10 -22 6 -3 -3 -1 -6 6 -6
7 0 10 -4 6 -9 -3 -6 4 -8 15 -6 12 2 23 -2 27 -11 3 -8 12 -13 20 -10 7 3 16
-1 20 -10 3 -8 11 -13 18 -10 8 3 17 -3 21 -12 10 -24 11 -29 13 -57 0 -14 5
-25 11 -25 6 0 8 17 5 40 -3 25 -1 40 5 40 6 0 9 -4 5 -9 -3 -5 -1 -12 5 -16
6 -4 8 -11 5 -16 -4 -5 -3 -15 1 -21 11 -17 12 -48 3 -54 -5 -2 -6 -11 -3 -18
3 -8 1 -17 -5 -21 -8 -4 -8 -12 0 -27 8 -14 14 -17 22 -9 7 7 6 15 -3 26 -10
12 -10 15 4 15 14 0 15 4 6 20 -6 11 -7 20 -2 20 5 0 7 14 4 30 -2 17 -9 30
-14 30 -5 0 -6 5 -2 11 3 6 1 15 -6 19 -8 5 -8 10 -2 14 6 3 15 -8 21 -24 9
-28 31 -42 31 -20 0 6 -4 10 -10 10 -16 0 -12 27 5 34 8 3 12 12 9 20 -5 14
-8 14 -21 0 -19 -18 -31 -10 -14 9 9 11 8 17 -3 26 -12 10 -13 9 -9 -9 4 -17
1 -20 -18 -17 -13 2 -22 8 -20 13 1 5 7 8 12 6 5 -1 9 2 9 8 0 16 -19 11 -41
-11 -25 -25 -41 -14 -41 25 0 27 -12 34 -24 15 -5 -8 -9 -8 -14 1 -5 8 -9 7
-14 -5z m40 -10 c-3 -24 -12 -27 -27 -8 -8 9 -9 14 -2 10 6 -4 14 -3 18 3 9
14 14 12 11 -5z m74 -56 c0 -6 -4 -7 -10 -4 -5 3 -10 11 -10 16 0 6 5 7 10 4
6 -3 10 -11 10 -16z"/>
<path d="M676 996 c5 -12 4 -17 -3 -13 -5 3 -10 -1 -10 -9 0 -13 2 -13 16 0
12 13 13 18 2 28 -10 11 -11 9 -5 -6z"/>
<path d="M560 950 c0 -5 5 -10 11 -10 5 0 7 5 4 10 -3 6 -8 10 -11 10 -2 0 -4
-4 -4 -10z"/>
<path d="M590 930 c0 -5 5 -10 11 -10 5 0 7 5 4 10 -3 6 -8 10 -11 10 -2 0 -4
-4 -4 -10z"/>
<path d="M624 918 c0 -12 8 -23 16 -26 12 -3 12 -2 3 8 -6 7 -9 19 -6 26 3 8
1 14 -5 14 -5 0 -9 -10 -8 -22z"/>
<path d="M520 920 c0 -5 5 -10 10 -10 6 0 10 5 10 10 0 6 -4 10 -10 10 -5 0
-10 -4 -10 -10z"/>
<path d="M556 915 c-3 -9 -6 -22 -5 -28 0 -7 5 -1 10 12 5 13 8 26 5 28 -2 2
-6 -3 -10 -12z"/>
<path d="M802 910 c-13 -22 -9 -40 10 -40 6 0 6 6 -2 15 -11 13 -10 14 1 10
10 -4 15 2 16 15 2 26 -9 26 -25 0z"/>
<path d="M655 910 c3 -5 11 -10 16 -10 6 0 7 5 4 10 -3 6 -11 10 -16 10 -6 0
-7 -4 -4 -10z"/>
<path d="M580 900 c0 -5 7 -10 16 -10 8 0 12 5 9 10 -3 6 -10 10 -16 10 -5 0
-9 -4 -9 -10z"/>
<path d="M845 890 c3 -14 -3 -22 -21 -26 -18 -5 -22 -10 -14 -19 5 -6 7 -15 4
-18 -3 -3 -2 -12 2 -19 5 -7 8 -22 9 -32 0 -11 6 -21 13 -23 14 -5 17 13 3 21
-5 3 -7 15 -4 26 3 11 1 20 -5 20 -6 0 -8 9 -5 20 3 11 9 17 14 14 5 -3 9 -2
10 3 0 4 2 16 4 25 2 10 -1 20 -5 23 -5 3 -7 -4 -5 -15z"/>
<path d="M505 890 c3 -5 8 -10 11 -10 2 0 4 5 4 10 0 6 -5 10 -11 10 -5 0 -7
-4 -4 -10z"/>
<path d="M663 875 c4 -8 2 -17 -4 -20 -5 -4 -7 -11 -4 -16 12 -18 22 -9 23 21
0 17 -4 30 -10 30 -5 0 -8 -7 -5 -15z"/>
<path d="M445 869 c-4 -6 -5 -12 -2 -15 2 -3 7 2 10 11 7 17 1 20 -8 4z"/>
<path d="M530 866 c0 -9 5 -16 10 -16 6 0 10 4 10 9 0 6 -4 13 -10 16 -5 3
-10 -1 -10 -9z"/>
<path d="M576 871 c-4 -5 -2 -12 3 -15 5 -4 12 -2 15 3 4 5 2 12 -3 15 -5 4
-12 2 -15 -3z"/>
<path d="M624 865 c3 -8 1 -15 -4 -15 -6 0 -10 -7 -10 -15 0 -23 17 -18 24 8
8 31 7 37 -5 37 -6 0 -9 -7 -5 -15z"/>
<path d="M865 861 c-3 -11 -11 -21 -16 -21 -9 0 -3 -44 9 -65 9 -14 7 -48 -2
-64 -5 -7 -4 -17 3 -24 7 -7 6 -13 -4 -21 -16 -12 -4 -43 12 -33 11 7 10 137
-1 180 -4 17 -3 26 3 23 12 -8 21 18 11 34 -6 9 -10 7 -15 -9z"/>
<path d="M485 860 c3 -5 8 -10 11 -10 2 0 4 5 4 10 0 6 -5 10 -11 10 -5 0 -7
-4 -4 -10z"/>
<path d="M560 836 c0 -9 5 -16 10 -16 6 0 10 4 10 9 0 6 -4 13 -10 16 -5 3
-10 -1 -10 -9z"/>
<path d="M780 817 c4 -19 3 -42 -2 -51 -7 -12 -5 -18 7 -22 22 -9 30 2 16 20
-9 11 -9 15 0 18 8 3 9 9 4 19 -5 8 -10 20 -10 28 0 8 -5 16 -12 18 -8 3 -9
-6 -3 -30z"/>
<path d="M890 831 c-13 -25 -13 -41 1 -41 6 0 8 7 4 18 -5 13 -4 14 6 5 7 -7
13 -21 14 -30 1 -10 5 -34 9 -53 7 -33 7 -34 -7 -15 -9 11 -19 17 -23 12 -4
-4 11 -25 34 -46 26 -25 42 -34 42 -25 0 9 5 12 10 9 6 -3 10 1 10 9 0 9 -5
16 -11 16 -6 0 -9 6 -6 13 3 8 -1 14 -9 14 -16 0 -19 -13 -4 -22 13 -8 13 -25
1 -25 -11 0 -17 17 -27 75 -4 23 -3 36 2 32 5 -5 10 -13 10 -18 1 -5 2 -13 3
-19 0 -5 6 -10 12 -10 6 0 7 5 2 13 -4 6 -8 15 -8 18 0 4 -12 21 -27 39 -15
18 -25 37 -22 42 3 4 3 8 0 8 -3 0 -10 -9 -16 -19z"/>
<path d="M410 829 c0 -5 5 -7 10 -4 6 3 10 8 10 11 0 2 -4 4 -10 4 -5 0 -10
-5 -10 -11z"/>
<path d="M460 830 c0 -5 5 -10 10 -10 6 0 10 5 10 10 0 6 -4 10 -10 10 -5 0
-10 -4 -10 -10z"/>
<path d="M510 824 c0 -8 5 -12 10 -9 6 3 10 10 10 16 0 5 -4 9 -10 9 -5 0 -10
-7 -10 -16z"/>
<path d="M690 822 c0 -4 5 -13 12 -20 9 -9 8 -12 -6 -12 -18 0 -18 -21 0 -27
11 -4 32 39 26 55 -4 13 -32 17 -32 4z"/>
<path d="M592 804 c3 -17 21 -21 26 -6 1 5 -4 12 -13 16 -11 4 -15 1 -13 -10z"/>
<path d="M642 808 c6 -18 28 -21 28 -4 0 9 -7 16 -16 16 -9 0 -14 -5 -12 -12z"/>
<path d="M370 799 c0 -5 5 -7 10 -4 6 3 10 8 10 11 0 2 -4 4 -10 4 -5 0 -10
-5 -10 -11z"/>
<path d="M425 800 c-3 -5 1 -10 10 -10 9 0 13 5 10 10 -3 6 -8 10 -10 10 -2 0
-7 -4 -10 -10z"/>
<path d="M480 795 c0 -8 5 -15 10 -15 6 0 10 7 10 15 0 8 -4 15 -10 15 -5 0
-10 -7 -10 -15z"/>
<path d="M535 801 c-6 -11 9 -23 19 -14 9 9 7 23 -3 23 -6 0 -12 -4 -16 -9z"/>
<path d="M396 771 c-4 -7 -5 -15 -2 -18 9 -9 19 4 14 18 -4 11 -6 11 -12 0z"/>
<path d="M516 771 c-4 -7 -5 -15 -2 -18 9 -9 19 4 14 18 -4 11 -6 11 -12 0z"/>
<path d="M570 760 c0 -13 5 -18 14 -14 8 3 12 12 9 20 -8 21 -23 17 -23 -6z"/>
<path d="M625 771 c-7 -12 12 -24 25 -16 11 7 4 25 -10 25 -5 0 -11 -4 -15 -9z"/>
<path d="M890 766 c0 -8 5 -18 10 -21 6 -3 10 1 10 9 0 8 -4 18 -10 21 -5 3
-10 -1 -10 -9z"/>
<path d="M450 760 c0 -5 5 -10 10 -10 6 0 10 5 10 10 0 6 -4 10 -10 10 -5 0
-10 -4 -10 -10z"/>
<path d="M662 738 c3 -7 13 -15 22 -16 12 -3 17 1 14 10 -3 7 -13 15 -22 16
-12 3 -17 -1 -14 -10z"/>
<path d="M818 744 c-4 -4 -3 -15 3 -25 6 -13 6 -19 -1 -19 -5 0 -10 -9 -10
-19 0 -11 -5 -23 -11 -27 -6 -3 -9 -14 -6 -24 3 -11 -1 -21 -9 -24 -19 -7 -18
-36 1 -36 8 0 15 9 15 19 0 11 5 23 11 27 6 3 9 14 6 24 -3 11 2 21 10 24 8 3
11 11 8 16 -4 6 -2 17 4 24 12 14 -9 53 -21 40z"/>
<path d="M350 730 c0 -5 5 -10 10 -10 6 0 10 5 10 10 0 6 -4 10 -10 10 -5 0
-10 -4 -10 -10z"/>
<path d="M416 731 c-4 -5 -2 -12 3 -15 5 -4 12 -2 15 3 4 5 2 12 -3 15 -5 4
-12 2 -15 -3z"/>
<path d="M477 734 c-8 -8 1 -24 14 -24 5 0 9 7 9 15 0 15 -12 20 -23 9z"/>
<path d="M540 726 c0 -9 7 -16 16 -16 17 0 14 22 -4 28 -7 2 -12 -3 -12 -12z"/>
<path d="M602 728 c6 -18 28 -21 28 -4 0 9 -7 16 -16 16 -9 0 -14 -5 -12 -12z"/>
<path d="M766 721 c-7 -10 22 -37 30 -28 9 8 -3 37 -15 37 -5 0 -12 -4 -15 -9z"/>
<path d="M706 711 c-7 -10 22 -37 30 -28 9 8 -3 37 -15 37 -5 0 -12 -4 -15 -9z"/>
<path d="M315 700 c-3 -5 -1 -10 4 -10 6 0 11 5 11 10 0 6 -2 10 -4 10 -3 0
-8 -4 -11 -10z"/>
<path d="M577 696 c-7 -19 11 -32 24 -19 6 6 5 14 -4 22 -12 9 -16 8 -20 -3z"/>
<path d="M640 697 c0 -19 10 -27 25 -20 17 6 8 33 -11 33 -8 0 -14 -6 -14 -13z"/>
<path d="M375 690 c3 -5 10 -10 16 -10 5 0 9 5 9 10 0 6 -7 10 -16 10 -8 0
-12 -4 -9 -10z"/>
<path d="M440 685 c0 -9 5 -15 11 -13 6 2 11 8 11 13 0 5 -5 11 -11 13 -6 2
-11 -4 -11 -13z"/>
<path d="M505 691 c-7 -12 12 -24 25 -16 11 7 4 25 -10 25 -5 0 -11 -4 -15 -9z"/>
<path d="M755 680 c-7 -12 2 -30 16 -30 12 0 12 27 0 35 -5 3 -12 1 -16 -5z"/>
<path d="M890 678 c0 -18 18 -34 28 -24 3 4 -2 14 -11 23 -16 16 -17 16 -17 1z"/>
<path d="M685 670 c-4 -6 -3 -14 0 -20 9 -15 35 -12 35 4 0 17 -27 29 -35 16z"/>
<path d="M340 654 c0 -8 5 -12 10 -9 6 4 8 11 5 16 -9 14 -15 11 -15 -7z"/>
<path d="M614 659 c-10 -17 13 -36 27 -22 12 12 4 33 -11 33 -5 0 -12 -5 -16
-11z"/>
<path d="M402 649 c2 -6 8 -10 13 -10 5 0 11 4 13 10 2 6 -4 11 -13 11 -9 0
-15 -5 -13 -11z"/>
<path d="M477 653 c-12 -11 -8 -23 8 -23 8 0 15 7 15 15 0 16 -12 20 -23 8z"/>
<path d="M542 648 c5 -15 28 -18 29 -3 0 6 -7 12 -17 13 -10 3 -15 -1 -12 -10z"/>
<path d="M925 650 c-8 -13 4 -32 16 -25 5 4 9 0 9 -7 0 -7 11 -26 25 -43 22
-28 24 -28 18 -6 -4 17 -3 22 5 17 7 -4 12 -3 12 3 0 5 -5 13 -11 17 -6 3 -9
15 -6 25 3 11 0 19 -5 19 -6 0 -8 -12 -4 -30 3 -17 1 -30 -4 -30 -6 0 -10 7
-10 15 0 20 -38 57 -45 45z"/>
<path d="M734 636 c-6 -17 2 -36 17 -36 12 0 12 37 -1 45 -6 3 -13 -1 -16 -9z"/>
<path d="M882 624 c1 -9 9 -19 16 -22 9 -3 13 2 10 14 -1 9 -9 19 -16 22 -9 3
-13 -2 -10 -14z"/>
<path d="M300 620 c0 -5 5 -10 11 -10 5 0 7 5 4 10 -3 6 -8 10 -11 10 -2 0 -4
-4 -4 -10z"/>
<path d="M585 620 c-10 -17 12 -37 25 -24 8 8 6 15 -4 23 -10 9 -16 9 -21 1z"/>
<path d="M656 621 c-7 -11 18 -33 27 -24 4 3 7 12 7 20 0 15 -26 18 -34 4z"/>
<path d="M360 610 c0 -5 7 -10 15 -10 8 0 15 5 15 10 0 6 -7 10 -15 10 -8 0
-15 -4 -15 -10z"/>
<path d="M437 614 c-8 -8 1 -24 14 -24 5 0 9 7 9 15 0 15 -12 20 -23 9z"/>
<path d="M510 605 c0 -8 7 -15 15 -15 8 0 15 7 15 15 0 8 -7 15 -15 15 -8 0
-15 -7 -15 -15z"/>
<path d="M832 603 c5 -25 28 -28 28 -4 0 12 -6 21 -16 21 -9 0 -14 -7 -12 -17z"/>
<path d="M915 600 c-7 -12 2 -30 16 -30 12 0 12 27 0 35 -5 3 -12 1 -16 -5z"/>
<path d="M707 593 c-13 -12 -7 -33 8 -33 8 0 15 9 15 20 0 20 -11 26 -23 13z"/>
<path d="M624 579 c-10 -17 13 -36 27 -22 12 12 4 33 -11 33 -5 0 -12 -5 -16
-11z"/>
<path d="M866 582 c-2 -4 0 -14 5 -22 8 -13 10 -13 18 0 10 15 6 30 -9 30 -5
0 -11 -4 -14 -8z"/>
<path d="M320 570 c0 -5 4 -10 9 -10 6 0 13 5 16 10 3 6 -1 10 -9 10 -9 0 -16
-4 -16 -10z"/>
<path d="M397 574 c-8 -8 1 -24 14 -24 5 0 9 7 9 15 0 15 -12 20 -23 9z"/>
<path d="M470 565 c0 -8 7 -15 15 -15 8 0 15 7 15 15 0 8 -7 15 -15 15 -8 0
-15 -7 -15 -15z"/>
<path d="M547 574 c-9 -10 2 -24 19 -24 8 0 14 7 14 15 0 15 -21 21 -33 9z"/>
<path d="M817 574 c-11 -11 -8 -44 3 -44 15 0 24 30 13 41 -5 5 -12 6 -16 3z"/>
<path d="M943 564 c-3 -8 -1 -20 6 -27 8 -8 11 -4 11 16 0 30 -7 35 -17 11z"/>
<path d="M740 540 c0 -15 5 -20 18 -18 9 2 17 10 17 18 0 8 -8 16 -17 18 -13
2 -18 -3 -18 -18z"/>
<path d="M900 540 c0 -19 11 -26 23 -14 8 8 -3 34 -14 34 -5 0 -9 -9 -9 -20z"/>
<path d="M291 534 c0 -11 3 -14 6 -6 3 7 2 16 -1 19 -3 4 -6 -2 -5 -13z"/>
<path d="M664 539 c-3 -6 -2 -15 4 -21 13 -13 32 -2 32 18 0 16 -26 19 -36 3z"/>
<path d="M971 535 c0 -11 6 -35 13 -54 9 -26 14 -31 19 -19 3 9 1 19 -6 21 -9
3 -9 8 1 18 14 15 16 39 2 39 -5 0 -7 -7 -4 -15 4 -8 1 -15 -6 -15 -6 0 -9 4
-6 8 2 4 1 14 -5 22 -7 12 -9 11 -8 -5z"/>
<path d="M355 531 c-6 -11 9 -23 19 -14 9 9 7 23 -3 23 -6 0 -12 -4 -16 -9z"/>
<path d="M437 533 c-12 -11 -8 -23 8 -23 8 0 15 7 15 15 0 16 -12 20 -23 8z"/>
<path d="M512 524 c4 -21 22 -23 26 -1 2 10 -3 17 -13 17 -10 0 -15 -6 -13
-16z"/>
<path d="M586 531 c-7 -11 18 -33 27 -24 4 3 7 12 7 20 0 15 -26 18 -34 4z"/>
<path d="M844 529 c-10 -17 13 -36 27 -22 12 12 4 33 -11 33 -5 0 -12 -5 -16
-11z"/>
<path d="M784 515 c-9 -23 10 -40 25 -22 9 11 8 17 -4 27 -12 10 -16 9 -21 -5z"/>
<path d="M714 506 c-4 -10 -2 -22 4 -28 8 -8 13 -7 18 6 4 10 2 22 -4 28 -8 8
-13 7 -18 -6z"/>
<path d="M930 499 c0 -11 5 -17 10 -14 6 3 10 13 10 21 0 8 -4 14 -10 14 -5 0
-10 -9 -10 -21z"/>
<path d="M637 503 c-4 -3 -7 -12 -7 -20 0 -15 26 -18 34 -4 7 11 -18 33 -27
24z"/>
<path d="M880 490 c0 -11 4 -20 9 -20 11 0 22 26 14 34 -12 12 -23 5 -23 -14z"/>
<path d="M320 490 c0 -5 5 -10 10 -10 6 0 10 5 10 10 0 6 -4 10 -10 10 -5 0
-10 -4 -10 -10z"/>
<path d="M396 493 c-11 -11 -6 -23 9 -23 8 0 15 4 15 9 0 13 -16 22 -24 14z"/>
<path d="M475 490 c-4 -6 -3 -16 3 -22 6 -6 12 -6 17 2 4 6 3 16 -3 22 -6 6
-12 6 -17 -2z"/>
<path d="M552 483 c5 -25 28 -28 28 -4 0 12 -6 21 -16 21 -9 0 -14 -7 -12 -17z"/>
<path d="M816 482 c-8 -13 11 -35 23 -28 16 10 14 36 -3 36 -8 0 -17 -4 -20
-8z"/>
<path d="M950 469 c0 -13 4 -18 12 -13 8 5 9 2 5 -9 -4 -10 -2 -17 4 -17 6 0
9 -7 6 -15 -4 -8 -2 -17 3 -20 9 -5 7 23 -5 68 -8 32 -25 36 -25 6z"/>
<path d="M757 473 c-13 -12 -7 -33 8 -33 8 0 15 9 15 20 0 20 -11 26 -23 13z"/>
<path d="M673 455 c-7 -20 2 -29 21 -22 9 4 13 13 10 22 -8 19 -23 19 -31 0z"/>
<path d="M907 456 c-6 -16 2 -28 14 -20 12 7 11 34 0 34 -5 0 -11 -6 -14 -14z"/>
<path d="M280 449 c0 -5 5 -7 10 -4 6 3 10 8 10 11 0 2 -4 4 -10 4 -5 0 -10
-5 -10 -11z"/>
<path d="M356 452 c-3 -6 -1 -14 5 -17 14 -9 20 -2 10 14 -6 8 -11 9 -15 3z"/>
<path d="M516 453 c-12 -12 -6 -33 9 -33 8 0 15 6 15 14 0 17 -14 28 -24 19z"/>
<path d="M597 453 c-13 -12 -7 -33 8 -33 8 0 15 9 15 20 0 20 -11 26 -23 13z"/>
<path d="M856 453 c-12 -12 -6 -33 9 -33 9 0 15 -9 15 -22 1 -23 1 -23 16 -3
13 18 13 20 0 23 -9 2 -16 10 -16 17 0 16 -14 27 -24 18z"/>
<path d="M432 439 c2 -6 8 -10 13 -10 5 0 11 4 13 10 2 6 -4 11 -13 11 -9 0
-15 -5 -13 -11z"/>
<path d="M784 429 c-3 -6 -2 -15 4 -21 13 -13 32 -2 32 18 0 16 -26 19 -36 3z"/>
<path d="M930 419 c0 -13 4 -18 12 -13 8 5 9 2 5 -9 -3 -10 -2 -17 4 -17 6 0
7 -4 4 -10 -3 -5 -1 -18 4 -27 9 -15 10 -12 7 12 -6 48 -17 85 -27 85 -5 0 -9
-9 -9 -21z"/>
<path d="M717 423 c-4 -3 -7 -12 -7 -20 0 -17 26 -17 33 1 8 21 -11 35 -26 19z"/>
<path d="M315 411 c-3 -5 -1 -12 5 -16 5 -3 10 1 10 9 0 18 -6 21 -15 7z"/>
<path d="M635 410 c-11 -17 5 -32 21 -19 7 6 11 15 8 20 -7 12 -21 11 -29 -1z"/>
<path d="M390 400 c0 -5 7 -10 16 -10 8 0 12 5 9 10 -3 6 -10 10 -16 10 -5 0
-9 -4 -9 -10z"/>
<path d="M470 395 c0 -9 5 -15 11 -13 6 2 11 8 11 13 0 5 -5 11 -11 13 -6 2
-11 -4 -11 -13z"/>
<path d="M550 395 c0 -8 7 -15 15 -15 8 0 15 7 15 15 0 8 -7 15 -15 15 -8 0
-15 -7 -15 -15z"/>
<path d="M824 396 c-8 -22 3 -33 18 -18 9 9 9 15 0 24 -9 9 -13 7 -18 -6z"/>
<path d="M752 374 c4 -21 22 -23 26 -1 2 10 -3 17 -13 17 -10 0 -15 -6 -13
-16z"/>
<path d="M900 375 c0 -8 5 -15 11 -15 6 0 9 -7 5 -15 -3 -8 -1 -15 5 -15 6 0
8 -7 5 -16 -3 -8 -2 -13 3 -10 11 7 11 56 0 56 -5 0 -9 7 -9 15 0 8 -4 15 -10
15 -5 0 -10 -7 -10 -15z"/>
<path d="M670 365 c0 -8 7 -15 15 -15 8 0 15 7 15 15 0 8 -7 15 -15 15 -8 0
-15 -7 -15 -15z"/>
<path d="M350 360 c0 -5 5 -10 10 -10 6 0 10 5 10 10 0 6 -4 10 -10 10 -5 0
-10 -4 -10 -10z"/>
<path d="M432 361 c4 -13 18 -16 19 -4 0 4 -5 9 -11 12 -7 2 -11 -2 -8 -8z"/>
<path d="M510 356 c0 -9 7 -16 16 -16 9 0 14 5 12 12 -6 18 -28 21 -28 4z"/>
<path d="M590 355 c0 -8 7 -15 15 -15 8 0 15 7 15 15 0 8 -7 15 -15 15 -8 0
-15 -7 -15 -15z"/>
<path d="M846 355 c-3 -9 0 -15 9 -15 8 0 15 -8 15 -17 0 -14 3 -14 12 -5 10
10 10 15 -1 21 -7 5 -10 14 -7 20 4 6 1 11 -7 11 -8 0 -17 -7 -21 -15z"/>
<path d="M785 350 c-8 -13 4 -32 16 -25 12 8 12 35 0 35 -6 0 -13 -4 -16 -10z"/>
<path d="M714 336 c-8 -22 3 -33 18 -18 9 9 9 15 0 24 -9 9 -13 7 -18 -6z"/>
<path d="M640 330 c-12 -7 -12 -12 -3 -21 10 -10 14 -9 19 5 8 22 2 27 -16 16z"/>
<path d="M390 320 c0 -5 7 -10 16 -10 8 0 12 5 9 10 -3 6 -10 10 -16 10 -5 0
-9 -4 -9 -10z"/>
<path d="M472 321 c2 -7 7 -12 11 -12 12 1 9 15 -3 20 -7 2 -11 -2 -8 -8z"/>
<path d="M550 315 c0 -8 7 -15 15 -15 8 0 15 7 15 15 0 8 -7 15 -15 15 -8 0
-15 -7 -15 -15z"/>
<path d="M816 323 c-9 -9 -7 -33 3 -33 12 0 22 28 12 34 -5 3 -11 3 -15 -1z"/>
<path d="M751 306 c-8 -9 -11 -19 -7 -23 9 -9 29 13 24 27 -2 8 -8 7 -17 -4z"/>
<path d="M887 303 c-11 -10 -8 -25 3 -18 6 4 8 -6 6 -25 -2 -17 -1 -28 3 -25
8 9 9 75 1 75 -4 0 -10 -3 -13 -7z"/>
<path d="M670 284 c0 -17 22 -14 28 4 2 7 -3 12 -12 12 -9 0 -16 -7 -16 -16z"/>
<path d="M836 285 c-3 -8 -1 -15 4 -15 13 0 22 18 11 24 -5 3 -11 -1 -15 -9z"/>
<path d="M430 280 c0 -5 7 -10 16 -10 8 0 12 5 9 10 -3 6 -10 10 -16 10 -5 0
-9 -4 -9 -10z"/>
<path d="M512 281 c4 -13 18 -16 19 -4 0 4 -5 9 -11 12 -7 2 -11 -2 -8 -8z"/>
<path d="M590 280 c0 -5 7 -10 15 -10 8 0 15 5 15 10 0 6 -7 10 -15 10 -8 0
-15 -4 -15 -10z"/>
<path d="M770 265 c0 -9 6 -12 15 -9 8 4 15 10 15 15 0 5 -7 9 -15 9 -8 0 -15
-7 -15 -15z"/>
<path d="M702 259 c2 -6 8 -10 13 -10 5 0 11 4 13 10 2 6 -4 11 -13 11 -9 0
-15 -5 -13 -11z"/>
<path d="M855 260 c-3 -5 -1 -18 4 -28 6 -11 7 -23 3 -27 -4 -5 -1 -5 6 -1 8
5 9 13 3 24 -4 9 -6 23 -4 30 5 14 -3 16 -12 2z"/>
<path d="M556 251 c-4 -7 -5 -15 -2 -18 9 -9 19 4 14 18 -4 11 -6 11 -12 0z"/>
<path d="M627 254 c-8 -8 1 -24 14 -24 5 0 9 7 9 15 0 15 -12 20 -23 9z"/>
<path d="M475 240 c4 -6 11 -8 16 -5 14 9 11 15 -7 15 -8 0 -12 -5 -9 -10z"/>
<path d="M795 240 c-3 -5 -2 -10 4 -10 5 0 13 5 16 10 3 6 2 10 -4 10 -5 0
-13 -4 -16 -10z"/>
<path d="M730 230 c0 -5 4 -10 9 -10 6 0 13 5 16 10 3 6 -1 10 -9 10 -9 0 -16
-4 -16 -10z"/>
<path d="M655 220 c-3 -5 1 -10 9 -10 8 0 18 5 21 10 3 6 -1 10 -9 10 -8 0
-18 -4 -21 -10z"/>
<path d="M816 221 c-4 -6 -2 -19 3 -29 6 -11 7 -23 3 -27 -4 -5 -2 -5 5 -2 6
4 10 18 8 32 -3 30 -11 40 -19 26z"/>
<path d="M440 209 c0 -5 5 -7 10 -4 6 3 10 8 10 11 0 2 -4 4 -10 4 -5 0 -10
-5 -10 -11z"/>
<path d="M515 210 c3 -5 8 -10 11 -10 2 0 4 5 4 10 0 6 -5 10 -11 10 -5 0 -7
-4 -4 -10z"/>
<path d="M585 210 c4 -6 11 -8 16 -5 14 9 11 15 -7 15 -8 0 -12 -5 -9 -10z"/>
<path d="M760 210 c-8 -5 -12 -11 -9 -14 2 -3 11 -1 19 4 8 5 12 11 9 14 -2 3
-11 1 -19 -4z"/>
<path d="M627 193 c-4 -3 -7 -11 -7 -17 0 -6 5 -5 12 2 6 6 9 14 7 17 -3 3 -9
2 -12 -2z"/>
<path d="M690 190 c0 -5 5 -10 10 -10 6 0 10 5 10 10 0 6 -4 10 -10 10 -5 0
-10 -4 -10 -10z"/>
<path d="M550 180 c0 -5 5 -10 10 -10 6 0 10 5 10 10 0 6 -4 10 -10 10 -5 0
-10 -4 -10 -10z"/>
<path d="M770 179 c0 -5 5 -7 10 -4 6 3 10 8 10 11 0 2 -4 4 -10 4 -5 0 -10
-5 -10 -11z"/>
<path d="M715 170 c-3 -5 -1 -10 4 -10 6 0 11 5 11 10 0 6 -2 10 -4 10 -3 0
-8 -4 -11 -10z"/>
<path d="M650 160 c0 -5 5 -10 10 -10 6 0 10 5 10 10 0 6 -4 10 -10 10 -5 0
-10 -4 -10 -10z"/>
<path d="M785 161 c-3 -5 -2 -12 3 -15 5 -3 9 1 9 9 0 17 -3 19 -12 6z"/>
<path d="M675 140 c-3 -5 -1 -10 4 -10 6 0 11 5 11 10 0 6 -2 10 -4 10 -3 0
-8 -4 -11 -10z"/>
<path d="M745 131 c-3 -5 -2 -12 3 -15 5 -3 9 1 9 9 0 17 -3 19 -12 6z"/>
</g>
</svg>
