<!--?xml version="1.0" standalone="no"?-->
              <svg id="sw-js-blob-svg" viewBox="0 0 100 100" xmlns="http://www.w3.org/2000/svg" version="1.1">
                    <defs> 
                        <linearGradient id="sw-gradient" x1="0" x2="1" y1="1" y2="0">
                            <stop id="stop1" stop-color="rgba(248, 117, 55, 1)" offset="0%"></stop>
                            <stop id="stop2" stop-color="rgba(251, 168, 31, 1)" offset="100%"></stop>
                        </linearGradient>
                    </defs>
                    <g>
                <path fill="url(#sw-gradient)" d="M17.4,-22C22.9,-16.1,28,-10.9,28.1,-5.7C28.2,-0.4,23.3,5.1,20,12.1C16.6,19,14.8,27.4,10.5,29C6.2,30.6,-0.6,25.4,-8.5,22.8C-16.5,20.2,-25.6,20.1,-31.5,15.5C-37.5,10.8,-40.3,1.6,-39.5,-7.6C-38.7,-16.9,-34.2,-26.2,-27,-31.9C-19.9,-37.6,-9.9,-39.7,-2,-37.3C5.9,-34.9,11.8,-28,17.4,-22Z" width="100%" height="100%" transform="translate(50 50)" stroke-width="0" style="transition: all 0.3s ease 0s;"></path>
              </g>
              </svg>